HIERARCHY
ROOT Hips
{
  OFFSET -366.821 92.5592 1589.03
  CHANNELS 6 Xposition Yposition Zposition Zrotation Xrotation Yrotation
  JOINT Spine
  {
    OFFSET 0 8.00001 0.000103807
    CHANNELS 6 Xposition Yposition Zposition Zrotation Xrotation Yrotation
    JOINT Spine1
    {
      OFFSET -0.000990673 8 -0.0011868
      CHANNELS 6 Xposition Yposition Zposition Zrotation Xrotation Yrotation
      JOINT Spine2
      {
        OFFSET 0.000970649 8 0.00120596
        CHANNELS 6 Xposition Yposition Zposition Zrotation Xrotation Yrotation
        JOINT Spine3
        {
          OFFSET 0 8 0
          CHANNELS 6 Xposition Yposition Zposition Zrotation Xrotation Yrotation
          JOINT Neck
          {
            OFFSET -4.00209e-05 17 0
            CHANNELS 6 Xposition Yposition Zposition Zrotation Xrotation Yrotation
            JOINT Head
            {
              OFFSET -0.000551002 10.8 -0.000454478
              CHANNELS 6 Xposition Yposition Zposition Zrotation Xrotation Yrotation
              End Site
              {
                OFFSET 0 20.25 0
              }
            }
          }
          JOINT LeftShoulder
          {
            OFFSET 4.99989 17 0
            CHANNELS 6 Xposition Yposition Zposition Zrotation Xrotation Yrotation
            JOINT LeftShoulder2
            {
              OFFSET 6.45 0 0
              CHANNELS 6 Xposition Yposition Zposition Zrotation Xrotation Yrotation
              JOINT LeftArm
              {
                OFFSET 6.45004 -5.45135e-05 -0.000283162
                CHANNELS 6 Xposition Yposition Zposition Zrotation Xrotation Yrotation
                JOINT LeftForeArm
                {
                  OFFSET 0.000464078 -32.3996 -2.0001
                  CHANNELS 6 Xposition Yposition Zposition Zrotation Xrotation Yrotation
                  JOINT LeftHand
                  {
                    OFFSET -0.000326173 -25.65 1.99933
                    CHANNELS 6 Xposition Yposition Zposition Zrotation Xrotation Yrotation
                    JOINT LeftHandThumb1
                    {
                      OFFSET -0.499772 -1.50002 2.64938
                      CHANNELS 6 Xposition Yposition Zposition Zrotation Xrotation Yrotation
                      JOINT LeftHandThumb2
                      {
                        OFFSET -5.73283e-05 -3.79482 3.69389
                        CHANNELS 6 Xposition Yposition Zposition Zrotation Xrotation Yrotation
                        JOINT LeftHandThumb3
                        {
                          OFFSET -0.000655204 -2.9999 2.70106
                          CHANNELS 6 Xposition Yposition Zposition Zrotation Xrotation Yrotation
                          End Site
                          {
                            OFFSET -0.0004913 -2.29993 1.80067
                          }
                        }
                      }
                    }
                    JOINT LeftHandIndex
                    {
                      OFFSET -0.000713266 -1.89996 1.60077
                      CHANNELS 6 Xposition Yposition Zposition Zrotation Xrotation Yrotation
                      JOINT LeftHandIndex1
                      {
                        OFFSET 0.00155099 -8.29928 1.89697
                        CHANNELS 6 Xposition Yposition Zposition Zrotation Xrotation Yrotation
                        JOINT LeftHandIndex2
                        {
                          OFFSET -3.95651e-05 -4.5005 0.000265496
                          CHANNELS 6 Xposition Yposition Zposition Zrotation Xrotation Yrotation
                          JOINT LeftHandIndex3
                          {
                            OFFSET -0.000569803 -3.39567 0.00167741
                            CHANNELS 6 Xposition Yposition Zposition Zrotation Xrotation Yrotation
                            End Site
                            {
                              OFFSET -3.98901e-05 -2.60017 -0.000172102
                            }
                          }
                        }
                      }
                    }
                    JOINT LeftHandMiddle
                    {
                      OFFSET -0.249753 -2.19787 0.399954
                      CHANNELS 6 Xposition Yposition Zposition Zrotation Xrotation Yrotation
                      JOINT LeftHandMiddle1
                      {
                        OFFSET -5.66523e-05 -8.30019 0.999849
                        CHANNELS 6 Xposition Yposition Zposition Zrotation Xrotation Yrotation
                        JOINT LeftHandMiddle2
                        {
                          OFFSET 0.00145119 -4.64852 -0.00553069
                          CHANNELS 6 Xposition Yposition Zposition Zrotation Xrotation Yrotation
                          JOINT LeftHandMiddle3
                          {
                            OFFSET -0.000665964 -3.30011 -0.00121755
                            CHANNELS 6 Xposition Yposition Zposition Zrotation Xrotation Yrotation
                            End Site
                            {
                              OFFSET 0.00524276 -2.6966 0.0153943
                            }
                          }
                        }
                      }
                    }
                    JOINT LeftHandRing
                    {
                      OFFSET -0.499218 -2.1504 -0.801989
                      CHANNELS 6 Xposition Yposition Zposition Zrotation Xrotation Yrotation
                      JOINT LeftHandRing1
                      {
                        OFFSET 0.000433553 -7.7503 -0.200917
                        CHANNELS 6 Xposition Yposition Zposition Zrotation Xrotation Yrotation
                        JOINT LeftHandRing2
                        {
                          OFFSET 0.00336672 -3.79853 0.00346363
                          CHANNELS 6 Xposition Yposition Zposition Zrotation Xrotation Yrotation
                          JOINT LeftHandRing3
                          {
                            OFFSET 2.35844e-05 -3.39965 -0.000480847
                            CHANNELS 6 Xposition Yposition Zposition Zrotation Xrotation Yrotation
                            End Site
                            {
                              OFFSET -0.000231543 -2.60012 -0.00032785
                            }
                          }
                        }
                      }
                    }
                    JOINT LeftHandPinky
                    {
                      OFFSET -0.749216 -1.75015 -1.8513
                      CHANNELS 6 Xposition Yposition Zposition Zrotation Xrotation Yrotation
                      JOINT LeftHandPinky1
                      {
                        OFFSET -0.000318355 -7.1502 -0.99943
                        CHANNELS 6 Xposition Yposition Zposition Zrotation Xrotation Yrotation
                        JOINT LeftHandPinky2
                        {
                          OFFSET 0.00079105 -2.99918 -0.00167257
                          CHANNELS 6 Xposition Yposition Zposition Zrotation Xrotation Yrotation
                          JOINT LeftHandPinky3
                          {
                            OFFSET 0.000231193 -2.34947 -0.000850321
                            CHANNELS 6 Xposition Yposition Zposition Zrotation Xrotation Yrotation
                            End Site
                            {
                              OFFSET -0.000327994 -2.09757 -0.000542281
                            }
                          }
                        }
                      }
                    }
                  }
                }
              }
            }
          }
          JOINT RightShoulder
          {
            OFFSET -5.00008 17 5.22148e-05
            CHANNELS 6 Xposition Yposition Zposition Zrotation Xrotation Yrotation
            JOINT RightShoulder2
            {
              OFFSET -6.45 0 0
              CHANNELS 6 Xposition Yposition Zposition Zrotation Xrotation Yrotation
              JOINT RightArm
              {
                OFFSET -6.45002 4.92979e-05 -0.00078345
                CHANNELS 6 Xposition Yposition Zposition Zrotation Xrotation Yrotation
                JOINT RightForeArm
                {
                  OFFSET -0.0041907 -32.3986 -2.00189
                  CHANNELS 6 Xposition Yposition Zposition Zrotation Xrotation Yrotation
                  JOINT RightHand
                  {
                    OFFSET -0.000208952 -25.6502 2.00036
                    CHANNELS 6 Xposition Yposition Zposition Zrotation Xrotation Yrotation
                    JOINT RightHandThumb1
                    {
                      OFFSET 0.498203 -1.5001 2.64843
                      CHANNELS 6 Xposition Yposition Zposition Zrotation Xrotation Yrotation
                      JOINT RightHandThumb2
                      {
                        OFFSET -0.00221819 -3.80287 3.69535
                        CHANNELS 6 Xposition Yposition Zposition Zrotation Xrotation Yrotation
                        JOINT RightHandThumb3
                        {
                          OFFSET 0.00593108 -2.99504 2.6944
                          CHANNELS 6 Xposition Yposition Zposition Zrotation Xrotation Yrotation
                          End Site
                          {
                            OFFSET -0.00188106 -2.29793 1.80104
                          }
                        }
                      }
                    }
                    JOINT RightHandIndex
                    {
                      OFFSET -0.000991009 -1.89972 1.59963
                      CHANNELS 6 Xposition Yposition Zposition Zrotation Xrotation Yrotation
                      JOINT RightHandIndex1
                      {
                        OFFSET 0.00631301 -8.3014 1.90543
                        CHANNELS 6 Xposition Yposition Zposition Zrotation Xrotation Yrotation
                        JOINT RightHandIndex2
                        {
                          OFFSET -0.00261233 -4.49876 -0.00122076
                          CHANNELS 6 Xposition Yposition Zposition Zrotation Xrotation Yrotation
                          JOINT RightHandIndex3
                          {
                            OFFSET -0.00047847 -3.40203 0.0013365
                            CHANNELS 6 Xposition Yposition Zposition Zrotation Xrotation Yrotation
                            End Site
                            {
                              OFFSET 2.29249e-05 -2.60051 -0.000304393
                            }
                          }
                        }
                      }
                    }
                    JOINT RightHandMiddle
                    {
                      OFFSET 0.248837 -2.19973 0.399018
                      CHANNELS 6 Xposition Yposition Zposition Zrotation Xrotation Yrotation
                      JOINT RightHandMiddle1
                      {
                        OFFSET 0.000702397 -8.30013 1.00083
                        CHANNELS 6 Xposition Yposition Zposition Zrotation Xrotation Yrotation
                        JOINT RightHandMiddle2
                        {
                          OFFSET -0.000102905 -4.64982 0
                          CHANNELS 6 Xposition Yposition Zposition Zrotation Xrotation Yrotation
                          JOINT RightHandMiddle3
                          {
                            OFFSET -0.00281412 -3.30282 0.00160617
                            CHANNELS 6 Xposition Yposition Zposition Zrotation Xrotation Yrotation
                            End Site
                            {
                              OFFSET -0.00224568 -2.70212 -0.000256473
                            }
                          }
                        }
                      }
                    }
                    JOINT RightHandRing
                    {
                      OFFSET 0.49383 -2.14878 -0.805518
                      CHANNELS 6 Xposition Yposition Zposition Zrotation Xrotation Yrotation
                      JOINT RightHandRing1
                      {
                        OFFSET -0.000599583 -7.75048 -0.204181
                        CHANNELS 6 Xposition Yposition Zposition Zrotation Xrotation Yrotation
                        JOINT RightHandRing2
                        {
                          OFFSET -0.000508652 -3.79816 -0.0016435
                          CHANNELS 6 Xposition Yposition Zposition Zrotation Xrotation Yrotation
                          JOINT RightHandRing3
                          {
                            OFFSET -0.000311668 -3.40028 0.000574104
                            CHANNELS 6 Xposition Yposition Zposition Zrotation Xrotation Yrotation
                            End Site
                            {
                              OFFSET 0.0031708 -2.60096 -0.00269173
                            }
                          }
                        }
                      }
                    }
                    JOINT RightHandPinky
                    {
                      OFFSET 0.745176 -1.75009 -1.8541
                      CHANNELS 6 Xposition Yposition Zposition Zrotation Xrotation Yrotation
                      JOINT RightHandPinky1
                      {
                        OFFSET 0.0014698 -7.15099 -1.00204
                        CHANNELS 6 Xposition Yposition Zposition Zrotation Xrotation Yrotation
                        JOINT RightHandPinky2
                        {
                          OFFSET -0.000238425 -3.0011 -0.00137866
                          CHANNELS 6 Xposition Yposition Zposition Zrotation Xrotation Yrotation
                          JOINT RightHandPinky3
                          {
                            OFFSET 0.00050773 -2.34971 -0.000386736
                            CHANNELS 6 Xposition Yposition Zposition Zrotation Xrotation Yrotation
                            End Site
                            {
                              OFFSET 0.00077789 -2.10053 0.000644584
                            }
                          }
                        }
                      }
                    }
                  }
                }
              }
            }
          }
        }
      }
    }
  }
  JOINT LeftUpLeg
  {
    OFFSET 8.00001 0 -1.97298e-05
    CHANNELS 6 Xposition Yposition Zposition Zrotation Xrotation Yrotation
    JOINT LeftLeg
    {
      OFFSET 0.000389224 -45.0003 -0.999636
      CHANNELS 6 Xposition Yposition Zposition Zrotation Xrotation Yrotation
      JOINT LeftFoot
      {
        OFFSET -0.00121415 -40.9996 -2.00134
        CHANNELS 6 Xposition Yposition Zposition Zrotation Xrotation Yrotation
        JOINT LeftToeBase
        {
          OFFSET 0.00048095 -7.49995 12.5003
          CHANNELS 6 Xposition Yposition Zposition Zrotation Xrotation Yrotation
          JOINT LeftFootToe
          {
            OFFSET 0 0 4
            CHANNELS 6 Xposition Yposition Zposition Zrotation Xrotation Yrotation
            End Site
            {
              OFFSET 0 0 0
            }
          }
        }
      }
    }
  }
  JOINT RightUpLeg
  {
    OFFSET -8.00001 0 1.97298e-05
    CHANNELS 6 Xposition Yposition Zposition Zrotation Xrotation Yrotation
    JOINT RightLeg
    {
      OFFSET -0.00227624 -45.0005 -1.0017
      CHANNELS 6 Xposition Yposition Zposition Zrotation Xrotation Yrotation
      JOINT RightFoot
      {
        OFFSET 0.00213702 -41.0057 -2.00002
        CHANNELS 6 Xposition Yposition Zposition Zrotation Xrotation Yrotation
        JOINT RightToeBase
        {
          OFFSET 0.0005462 -7.50001 12.5003
          CHANNELS 6 Xposition Yposition Zposition Zrotation Xrotation Yrotation
          JOINT RightFootToe
          {
            OFFSET 0 0 4
            CHANNELS 6 Xposition Yposition Zposition Zrotation Xrotation Yrotation
            End Site
            {
              OFFSET 0 0 0
            }
          }
        }
      }
    }
  }
}
MOTION
Frames:	3
Frame Time:	0.0111111
-348.761 91.4148 1601.26 4.73955 3.73774 -139.528 0 8 0 2.26435 18.3612 17.6349 0 8 -1.13687e-13 -0.485146 8.14235 5.48348 0 8 5.68434e-14 -0.144872 4.0782 2.73299 0 8 1.7053e-13 -0.143668 4.06493 2.72022 0 17 -2.84217e-14 4.86744 1.34604 -12.2313 0 10.8 0 11.6678 1.437 -28.924 5 17 5.68434e-14 0.949545 -2.16646 9.9037 6.45 -5.68434e-14 0 -1.60847 -1.75058 -2.57745 6.45 -5.68434e-14 -5.68434e-14 67.178 -61.3391 43.7941 0 -32.4 -2 -20.6905 -30.6524 -6.22031 -2.27374e-13 -25.65 2 -14.696 -20.045 -11.5911 -0.5 -1.5 2.65 6.04759 -5.74462 28.5802 -2.27374e-13 -3.8 3.7 1.83473 2.64566 1.54611 2.27374e-13 -3 2.7 -0.0106568 9.56379 0.00643317 2.27374e-13 -1.9 1.6 4.39131e-06 6.41872e-07 2.6623e-06 2.27374e-13 -8.3 1.9 -2.06198 8.27736 0.219325 2.27374e-13 -4.5 2.27374e-13 -35.7374 -0.111208 0.259723 0 -3.4 2.27374e-13 -25.4957 -0.12836 0.113225 -0.25 -2.2 0.4 4.39131e-06 6.41872e-07 2.6623e-06 2.27374e-13 -8.3 1 -6.49299 -5.14738 0.163983 2.27374e-13 -4.65 1.13687e-13 -38.085 -0.0273507 0.0509705 -5.68434e-14 -3.3 2.27374e-13 -11.8285 -0.9493 0.954672 -0.5 -2.15 -0.8 4.39131e-06 6.41872e-07 2.6623e-06 0 -7.75 -0.2 -6.17649 -11.265 0.248427 0 -3.8 -1.13687e-13 -10.4689 0.0437873 0.309916 1.13687e-13 -3.4 -2.27374e-13 -59.7384 -0.270512 0.214024 -0.75 -1.75 -1.85 4.39131e-06 6.41872e-07 2.6623e-06 -2.27374e-13 -7.15 -1 -9.51176 -22.3748 -0.487363 0 -3 -1.13687e-13 -0.0947302 0.00084481 -0.124939 0 -2.35 0 -4.0254e-05 -0.0325267 -0.207548 -5 17 0 1.61873 -1.42389 6.15282 -6.45 -5.68434e-14 -1.7053e-13 -1.60134 0.59354 -4.0862 -6.45 0 2.84217e-14 -28.0197 -70.5274 10.8874 0 -32.4 -2 28.545 -44.1653 -0.898936 0 -25.65 2 -21.8181 16.665 -8.66869 0.5 -1.5 2.65 -103.03 37.1486 -107.826 -2.27374e-13 -3.8 3.7 -27.2312 45.0068 4.61 0 -3 2.7 0.0173037 29.9487 -0.0151018 0 -1.9 1.6 -4.90406e-06 8.55889e-06 -4.37251e-06 2.27374e-13 -8.3 1.9 5.03487 6.81491 -0.335258 0 -4.5 0 3.81436 0.856458 0.0029302 4.54747e-13 -3.4 -1.13687e-13 3.76146 -0.0205139 -0.00812499 0.25 -2.2 0.4 -4.90406e-06 8.55889e-06 -4.37251e-06 0 -8.3 1 20.4744 13.0108 -2.79285 2.27374e-13 -4.65 5.68434e-14 39.4816 21.4874 1.75082 -1.13687e-13 -3.3 0 33.4992 -0.0176534 -0.0041698 0.5 -2.15 -0.8 -4.90406e-06 8.55889e-06 -4.37251e-06 2.27374e-13 -7.75 -0.2 54.0248 17.4115 -11.944 2.27374e-13 -3.8 0 20.6377 22.0096 3.99115 5.68434e-14 -3.4 0 28.6964 -0.00254582 -0.00907876 0.75 -1.75 -1.85 -4.90406e-06 8.55889e-06 -4.37251e-06 2.27374e-13 -7.15 -1 73.0483 -0.359408 -6.95742 5.68434e-14 -3 5.68434e-14 28.8517 21.7967 2.63518 0 -2.35 2.27374e-13 29.8541 -0.0235687 -0.0439739 8 -5.68434e-14 1.13687e-13 38.7007 -24.6457 31.7664 0 -45 -1 -32.1794 26.7859 11.1354 0 -41 -2 12.1233 2.04238 -20.6263 -2.27374e-13 -7.5 12.5 -3.32846e-06 1.97274e-06 0.000674372 0 0 4 2.64261 -6.71817 -1.60074 -8 0 -1.13687e-13 33.7763 -8.03793 -22.9808 0 -45 -1 -44.0196 -5.06183 4.97547 0 -41 -2 21.2804 3.62289 5.27138 0 -7.5 12.5 0.00768754 0.249787 0.00420143 2.27374e-13 0 4 5.57735 -0.860338 60.0353 
-348.785 91.419 1601.28 4.74139 3.73701 -139.562 0 8 1.13687e-13 2.25908 18.3463 17.6239 0 8 0 -0.491898 8.13749 5.48426 0 8 1.13687e-13 -0.14833 4.07741 2.73368 0 8 1.7053e-13 -0.147108 4.0649 2.72076 0 17 -1.13687e-13 4.86004 1.36274 -12.1951 2.27374e-13 10.8 0 11.6523 1.48166 -28.8394 5 17 1.13687e-13 0.944783 -2.18056 9.87656 6.45 0 2.84217e-14 -1.60787 -1.75059 -2.56279 6.45 -5.68434e-14 -8.52651e-14 66.7952 -61.2206 43.4812 0 -32.4 -2 -20.7177 -30.6809 -6.16045 -2.27374e-13 -25.65 2 -14.5843 -20.4114 -11.2262 -0.5 -1.5 2.65 6.06846 -5.95587 28.2929 -2.27374e-13 -3.8 3.7 1.7933 2.53515 1.51623 2.27374e-13 -3 2.7 -0.0104885 9.58964 0.00651266 0 -1.9 1.6 4.39131e-06 6.41872e-07 2.6623e-06 0 -8.3 1.9 -1.62595 6.37858 0.128565 2.27374e-13 -4.5 0 -33.21 -0.0954354 0.253427 0 -3.4 1.13687e-13 -23.9624 -0.115394 0.116187 -0.25 -2.2 0.4 4.39131e-06 6.41872e-07 2.6623e-06 4.54747e-13 -8.3 1 -6.88853 -6.98523 0.0723422 0 -4.65 2.27374e-13 -37.493 -0.0106025 0.0198294 0 -3.3 1.13687e-13 -2.86435 -0.584108 0.705279 -0.5 -2.15 -0.8 4.39131e-06 6.41872e-07 2.6623e-06 -2.27374e-13 -7.75 -0.2 -6.57551 -12.2093 0.224096 0 -3.8 0 -6.73406 0.0422269 0.20643 0 -3.4 -2.27374e-13 -54.5989 -0.208384 0.229721 -0.75 -1.75 -1.85 4.39131e-06 6.41872e-07 2.6623e-06 -2.27374e-13 -7.15 -1 -10.5226 -23.2255 -0.617251 0 -3 0 -0.0947327 0.00084481 -0.126134 0 -2.35 0 -4.17255e-05 -0.0328876 -0.208343 -5 17 -5.68434e-14 1.6314 -1.42214 6.15526 -6.45 -5.68434e-14 -1.13687e-13 -1.60305 0.593179 -4.08588 -6.45 -5.68434e-14 -1.13687e-13 -28.4026 -70.6106 10.6879 2.27374e-13 -32.4 -2 27.7586 -44.5175 -0.151249 0 -25.65 2 -22.6393 17.1152 -7.67788 0.5 -1.5 2.65 -102.337 39.092 -106.651 -1.13687e-13 -3.8 3.7 -27.2302 45.007 4.60952 2.27374e-13 -3 2.7 0.0173157 29.9487 -0.0150743 2.27374e-13 -1.9 1.6 -4.90406e-06 8.55889e-06 -4.37251e-06 0 -8.3 1.9 5.08577 6.83344 -0.337843 -2.27374e-13 -4.5 -2.84217e-14 3.74894 0.842303 0.00296466 6.82121e-13 -3.4 -5.68434e-14 3.69882 -0.0126187 -0.00635172 0.25 -2.2 0.4 -4.90406e-06 8.55889e-06 -4.37251e-06 0 -8.3 1 20.1465 13.1 -2.7695 0 -4.65 5.68434e-14 39.5761 21.5938 1.78037 0 -3.3 0 33.598 -0.0179187 0.00536669 0.5 -2.15 -0.8 -4.90406e-06 8.55889e-06 -4.37251e-06 2.27374e-13 -7.75 -0.2 53.9575 17.2892 -11.8556 3.41061e-13 -3.8 -5.68434e-14 20.7349 22.2004 4.07993 0 -3.4 0 28.886 -0.00275321 -0.0015039 0.75 -1.75 -1.85 -4.90406e-06 8.55889e-06 -4.37251e-06 2.27374e-13 -7.15 -1 72.1893 -0.16316 -6.88505 -5.68434e-14 -3 0 29.2681 22.3288 2.79121 0 -2.35 0 30.3558 -0.0228431 -0.0375508 8 0 1.13687e-13 38.696 -24.6391 31.7585 2.27374e-13 -45 -1 -32.1951 26.7949 11.1441 -2.27374e-13 -41 -2 12.1342 2.02116 -20.6256 -2.27374e-13 -7.5 12.5 -3.32846e-06 1.97274e-06 0.000674372 0 -3.55271e-15 4 2.63501 -6.71658 -1.59989 -8 0 0 33.7553 -8.026 -22.9738 0 -45 -1 -44.0173 -5.07665 4.96677 0 -41 -2 21.301 3.64089 5.29347 0 -7.5 12.5 0.00768749 0.250435 0.00420143 0 0 4 5.57492 -0.877855 60.0361 
-348.809 91.4228 1601.3 4.74305 3.73658 -139.593 0 8 0 2.25344 18.3301 17.613 0 8 -1.13687e-13 -0.498063 8.13136 5.48484 0 8 5.68434e-14 -0.151478 4.07639 2.73453 -2.27374e-13 8 1.7053e-13 -0.150485 4.06455 2.7213 0 17 0 4.85202 1.37999 -12.1576 2.27374e-13 10.8 1.13687e-13 11.635 1.52786 -28.7518 5 17 1.7053e-13 0.940878 -2.19225 9.84671 6.45 0 -2.84217e-14 -1.60713 -1.75021 -2.54486 6.45 -5.68434e-14 2.84217e-14 66.4267 -61.1009 43.1723 -2.27374e-13 -32.4 -2 -20.7411 -30.7043 -6.10083 -4.54747e-13 -25.65 2 -14.4727 -20.7483 -10.9026 -0.5 -1.5 2.65 6.08236 -6.15556 28.0491 0 -3.8 3.7 1.75038 2.41944 1.48482 -2.27374e-13 -3 2.7 -0.0103194 9.60631 0.00659582 4.54747e-13 -1.9 1.6 4.39131e-06 6.41872e-07 2.6623e-06 0 -8.3 1.9 -1.33907 4.61281 0.0747578 0 -4.5 0 -30.6141 -0.0725233 0.232944 1.13687e-13 -3.4 1.13687e-13 -22.3871 -0.0950502 0.113216 -0.25 -2.2 0.4 4.39131e-06 6.41872e-07 2.6623e-06 2.27374e-13 -8.3 1 -7.4104 -8.74304 -0.0223228 2.27374e-13 -4.65 2.27374e-13 -37.4278 -0.002847 0.0068279 0 -3.3 2.27374e-13 4.38538 -0.235359 0.356068 -0.5 -2.15 -0.8 4.39131e-06 6.41872e-07 2.6623e-06 0 -7.75 -0.2 -6.98903 -13.0067 0.198441 2.27374e-13 -3.8 -1.13687e-13 -3.78948 0.0284484 0.108806 0 -3.4 -2.27374e-13 -49.313 -0.134462 0.228451 -0.75 -1.75 -1.85 4.39131e-06 6.41872e-07 2.6623e-06 -2.27374e-13 -7.15 -1 -11.5292 -23.9967 -0.754886 0 -3 0 -0.0947353 0.00084481 -0.127324 0 -2.35 0 -4.32556e-05 -0.0332613 -0.209132 -5 17 -5.68434e-14 1.64628 -1.42253 6.15853 -6.45 -1.7053e-13 -1.7053e-13 -1.60344 0.592794 -4.08568 -6.45 5.68434e-14 -5.68434e-14 -28.7635 -70.6881 10.504 0 -32.4 -2 26.9577 -44.8975 0.627373 0 -25.65 2 -23.5447 17.5593 -6.54237 0.5 -1.5 2.65 -101.653 41.1644 -105.368 -1.13687e-13 -3.8 3.7 -27.2294 45.0072 4.6092 0 -3 2.7 0.0173283 29.9487 -0.0150459 0 -1.9 1.6 -4.90406e-06 8.55889e-06 -4.37251e-06 0 -8.3 1.9 5.07262 6.82494 -0.334411 0 -4.5 -2.84217e-14 3.74733 0.841814 0.00307356 4.54747e-13 -3.4 -5.68434e-14 3.69585 -0.000897221 -0.00462788 0.25 -2.2 0.4 -4.90406e-06 8.55889e-06 -4.37251e-06 0 -8.3 1 19.7925 13.2015 -2.74424 -2.27374e-13 -4.65 0 39.6884 21.7157 1.81025 1.13687e-13 -3.3 0 33.7138 -0.0180323 0.0127382 0.5 -2.15 -0.8 -4.90406e-06 8.55889e-06 -4.37251e-06 0 -7.75 -0.2 53.8812 17.157 -11.7582 3.41061e-13 -3.8 0 20.8382 22.4038 4.17282 1.7053e-13 -3.4 0 29.0885 -0.00296354 0.00462034 0.75 -1.75 -1.85 -4.90406e-06 8.55889e-06 -4.37251e-06 0 -7.15 -1 71.277 0.0664876 -6.82691 5.68434e-14 -3 0 29.6827 22.8829 2.96097 5.68434e-14 -2.35 0 30.8748 -0.0223326 -0.02986 8 0 1.13687e-13 38.6916 -24.6336 31.7496 -2.27374e-13 -45 -1 -32.2101 26.8035 11.1518 2.27374e-13 -41 -2 12.1433 1.99877 -20.6249 0 -7.5 12.5 -3.32846e-06 1.97274e-06 0.000674372 -2.27374e-13 3.55271e-15 4 2.63023 -6.7143 -1.59896 -8 0 0 33.7349 -8.01431 -22.9645 -1.13687e-13 -45 -1 -44.0144 -5.0906 4.95913 1.13687e-13 -41 -2 21.3206 3.6574 5.31105 0 -7.5 12.5 0.00768745 0.251072 0.00420143 2.27374e-13 -2.84217e-14 4 5.5722 -0.893218 60.0366 
